<svg width="1440" height="1300" viewBox="0 0 1440 1300" fill="none" xmlns="http://www.w3.org/2000/svg">
<g clip-path="url(#clip0_6485_701)">
<rect width="1440" height="1300" fill="#F9F9F9"/>
<path d="M771.345 921.143C787.582 914.58 795.701 897.373 808.159 885.869C832.274 863.48 867.788 862.68 896.603 849.234C954.533 824.865 1006 770.303 1012.68 706.158V705.538C1012.24 692.673 1006.9 695.034 1004.82 705.458C999.665 733.949 980.009 757.638 958.212 775.565C930.277 798.915 894.264 807.538 859.83 816.181C815.717 827.606 761.107 837.77 738.771 882.708C726.773 908.718 743.09 931.907 771.365 921.123L771.345 921.143ZM368.656 389.673C293.409 375.628 225.481 450.718 222.701 525.587V526.227C225.441 551.377 238.178 514.723 242.518 509.1C248.097 499.737 254.836 491.233 262.495 483.53C322.784 425.187 339.741 465.023 375.875 447.076C401.75 431.91 398.17 397.156 368.656 389.653V389.673ZM696.618 388.933C634.829 402.378 577.439 358.621 516.87 357.781H516.17C491.894 357.721 467.418 365.604 446.662 378.309C435.744 385.072 424.726 392.795 416.087 402.138C404.729 414.543 409.228 418.945 426.085 413.643C494.314 386.092 538.406 405.14 605.714 421.246C623.711 425.608 642.648 429.029 661.104 426.608C678.021 424.587 695.978 416.724 707.016 404.219C718.914 390.514 709.536 387.192 696.618 388.933ZM390.692 1029.81C391.832 1036.69 393.311 1041.93 395.151 1042.87L395.331 1042.95C396.811 1043.59 398.51 1041.53 400.07 1037.43C401.53 1033.63 402.75 1028.24 403.43 1023.78C415.488 951.775 385.353 873.944 325.563 831.027C309.926 818.962 283.871 807.178 267.753 823.965C255.915 836.85 258.035 859.519 267.893 873.404C288.15 900.515 320.564 915.421 344.14 939.39C370.095 963.64 386.772 994.412 390.712 1029.81H390.692ZM141.775 431.29C142.155 439.213 144.275 458.601 151.654 459.081C153.013 458.841 154.273 457.26 155.313 454.719C157.833 448.156 158.392 440.493 160.052 433.351C165.591 407.54 175.13 382.09 199.705 369.445C204.764 366.364 209.863 363.263 213.603 359.442C223.101 350.678 220.981 335.652 210.683 328.809C199.145 320.946 183.568 326.148 173.49 334.332C147.015 357.141 141.775 396.756 141.755 430.59L141.795 431.29H141.775ZM167.251 637.871C173.41 664.802 194.066 685.49 207.784 708.799C221.022 728.887 232.519 750.276 243.657 771.724C246.437 776.606 249.816 786.45 254.056 788.811L254.276 788.871C260.235 787.77 255.515 768.623 254.636 763.221C246.917 726.366 239.059 689.552 231 652.757C228.18 640.192 224.721 627.367 217.402 616.643C194.106 581.829 159.872 597.855 167.231 637.851L167.251 637.871ZM416.167 278.45C412.968 278.029 409.349 278.25 405.869 278.63C300.188 289.474 177.389 364.824 171.85 478.468V479.169C171.53 503.098 176.249 528.888 186.268 547.616C188.387 551.377 191.727 557.179 196.446 556.659C199.865 556.399 201.605 549.556 201.505 544.715C198.086 491.253 215.902 441.054 250.116 399.837C292.089 347.237 351.719 313.904 414.648 293.316C423.806 289.794 428.145 280.21 416.187 278.47L416.167 278.45ZM256.375 690.152V690.812C257.035 730.128 271.552 768.783 299.008 797.174C308.026 807.358 321.324 813.32 313.625 791.932C310.226 782.728 306.766 772.784 304.527 762.981C266.653 613.802 394.311 482.53 529.587 443.074C541.405 438.473 546.845 429.269 531.347 427.288C520.889 426.448 509.491 428.189 498.873 429.789C373.435 450.557 258.275 558.74 256.355 690.132L256.375 690.152ZM440.403 608.039C440.883 609.86 445.082 611.341 451.821 612.201C470.358 613.982 495.034 614.022 514.91 613.862C580.059 614.902 642.108 579.508 676.461 524.807C687.74 506.82 707.176 471.106 686.1 454.859C657.225 442.914 633.489 504.279 618.512 522.866C586.317 572.225 540.886 591.133 483.836 595.454C474.877 596.495 465.499 597.815 457.42 599.736C446.602 602.257 439.763 605.358 440.363 607.899L440.403 608.039ZM889.584 241.175C799.04 285.072 710.436 396.836 709.556 500.497V501.157C708.756 580.949 755.028 664.822 833.114 691.272C887.805 710.42 951.673 692.053 987.607 646.255C1002.02 629.368 1013.88 601.557 980.749 623.886C963.852 634.81 945.534 640.472 925.998 640.712C883.885 641.092 845.112 620.844 817.077 590.232C782.743 553.558 764.626 497.196 777.924 443.435C791.361 388.673 817.837 337.533 852.091 292.715C862.589 279.19 874.547 266.905 887.385 255.561C892.664 251.139 905.661 236.813 889.604 241.175H889.584ZM874.647 333.952C876.167 329.85 876.747 326.188 875.727 324.128C868.828 315.804 851.691 338.973 846.792 344.536C816.157 382.471 795.861 428.069 794.981 478.088V478.749C795.121 547.816 847.352 601.717 918.259 604.318C931.557 605.138 942.415 599.636 927.578 588.272C847.052 539.793 831.795 439.313 864.689 357.161C867.648 349.338 871.667 341.655 874.607 333.972L874.647 333.952ZM574.36 532.77C597.716 515.863 617.852 493.294 628.35 466.124C630.55 460.841 632.729 450.217 630.57 448.817L630.43 448.677C625.531 446.336 617.492 457.2 612.533 461.382C576.079 499.257 521.589 503.558 473.117 514.583C403.989 530.569 331.282 578.048 317.465 652.077C314.985 670.184 326.943 688.931 345.48 679.948C357.198 674.046 365.216 663.201 373.555 652.837C391.991 628.247 412.368 603.978 440.283 589.972C461.759 578.488 486.015 572.766 508.831 565.103C532.027 557.5 554.563 547.196 574.36 532.75V532.77ZM729.413 795.273L730.072 795.533C802.7 818.822 942.515 792.972 970.21 720.904C971.83 713.801 968.631 705.798 962.312 702.096C950.794 696.294 936.516 704.377 926.298 710.24C878.686 745.794 833.174 786.19 770.225 786.79C759.987 787.15 749.949 785.81 739.891 784.069C734.872 783.268 729.333 782.108 725.393 783.489C717.835 786.27 723.534 793.633 729.393 795.293L729.413 795.273ZM794.341 755.438C819.177 755.538 842.613 750.115 863.809 736.87C867.368 734.649 872.427 730.028 872.027 727.206C871.087 720.784 864.489 722.705 859.67 722.665C850.571 722.605 841.393 723.245 832.375 722.305C800.9 719.063 773.065 708.519 752.148 682.969C734.092 660.92 719.254 637.551 712.336 609.44C707.636 590.372 691.319 576.887 675.142 576.627C657.505 576.347 641.268 589.032 634.449 607.639C629.49 621.165 632.75 633.489 637.869 646.074C664.164 710.62 727.773 755.177 794.361 755.458L794.341 755.438ZM263.214 1087.33C303.887 1067.68 335.122 1021.7 331.722 976.264C329.662 952.675 315.905 931.987 296.188 918.962C283.091 909.918 260.335 900.635 246.977 912.219C233.859 924.424 245.417 939.35 258.635 945.753C276.112 954.396 290.829 969.622 293.109 989.59C296.948 1027.8 266.294 1058.8 238.218 1080.55C232.959 1085.27 220.882 1091.53 219.922 1098.01L219.982 1098.19C226.661 1104.11 255.175 1091.21 263.194 1087.31L263.214 1087.33ZM500.173 332.811C486.695 344.776 504.632 346.096 513.35 344.736C565.121 337.273 613.693 363.123 664.384 367.325H665.004C678.981 367.165 693.079 364.924 706.956 360.802C723.913 355.6 739.93 346.256 752.548 333.691C772.305 313.323 754.668 313.884 736.911 319.666C657.185 342.775 611.393 281.391 524.728 319.206C516.09 323.087 507.271 327.009 500.193 332.811H500.173ZM864.209 134.573C851.911 132.152 838.713 134.533 826.195 134.693C765.186 137.294 724.653 141.916 682.801 190.595C664.984 207.582 645.407 222.508 621.971 230.771C607.474 235.573 592.936 241.155 581.998 252.199C576.619 257.702 570.46 264.564 571.72 268.746L571.84 268.946C574.86 271.247 579.899 268.206 583.438 267.325C610.613 258.082 639.908 256.861 668.343 253.82C718.854 247.557 747.209 225.909 783.543 192.316C806.519 175.889 831.315 160.923 857.63 150.619C866.868 147.958 879.686 139.535 864.209 134.573ZM560.422 201.92C558.903 200.959 556.083 203.08 552.823 207.222C549.664 211.223 546.444 216.445 543.505 220.887C519.749 257.461 485.795 283.492 446.622 300.418C417.827 314.964 379.654 313.764 354.638 334.912C333.522 357.301 359.237 379.529 383.853 379.249C468.638 378.349 534.507 294.676 559.442 219.126C560.862 214.304 563.301 204.941 560.602 202L560.422 201.88V201.92ZM518.849 66.6863C499.953 186.013 357.738 248.938 251.916 204.28C245.977 201.679 229.8 195.497 233.219 206.982C237.519 215.825 246.837 222.708 254.376 229.27C276.892 246.797 307.666 258.242 336.601 258.702H337.221C430.705 260.783 533.047 206.681 544.305 110.764C545.345 96.6981 543.325 82.6325 537.486 68.9271C532.227 56.1021 522.589 50.5599 518.849 66.6663V66.6863ZM386.052 1126.3C455.98 1069.36 519.909 950.634 462.219 866.841C447.602 843.892 426.665 823.524 420.646 796.274C419.207 785.709 416.267 766.382 408.809 784.589C392.991 846.293 427.405 905.437 439.043 965.04C451.741 1020.1 419.567 1072.04 384.193 1111.54C378.854 1118.38 365.736 1129.32 366.076 1135.99L366.156 1136.17C370.635 1139.17 381.453 1129.82 386.052 1126.3ZM1160.34 171.007C1141.96 147.538 1106.17 143.917 1080.57 155.241C1061.99 163.184 1047.62 175.549 1036.24 191.535C1032.06 198.138 1024.76 204.821 1025.1 212.644C1028.7 222.268 1045.7 203.68 1051.14 201.079C1074.51 184.833 1099.87 178.81 1127.52 187.254C1133.58 188.954 1140.06 191.255 1146.1 191.415H1146.7C1159.08 191.836 1168.06 182.732 1160.34 171.027V171.007ZM409.789 160.323C356.498 167.586 307.946 150.859 264.734 119.807C257.655 114.805 249.956 109.303 241.758 106.402C220.842 97.7585 196.426 114.385 199.765 136.994C201.505 149.899 213.343 161.143 224.721 168.546C251.796 186.353 284.79 193.236 316.585 193.336H317.245C353.318 191.916 393.251 186.774 423.986 166.265C425.965 164.325 426.506 162.584 425.426 161.444C422.726 158.843 414.388 159.863 409.809 160.343L409.789 160.323ZM682.5 949.994C726.133 977.685 781.983 975.264 830.235 963.72C835.314 962.339 844.152 960.058 846.632 955.556L846.732 955.236C846.552 948.193 822.136 950.995 815.837 950.334C773.785 948.734 737.031 926.965 699.497 910.218C654.585 891.131 646.367 927.125 682.5 950.014V949.994ZM656.385 852.716C656.545 864.04 655.665 878.246 663.664 886.709C670.503 894.112 681.241 893.932 688.82 886.229C702.537 872.183 707.256 852.116 707.296 833.088C706.137 760.079 664.384 698.615 603.155 660.54C593.096 654.078 582.018 649.556 570.46 646.695C550.923 642.233 555.363 653.757 567.121 661.601C627.83 706.018 656.465 778.847 656.365 852.036V852.696L656.385 852.716ZM412.548 1144.77C453.061 1134.35 485.975 1104.92 510.891 1072.5C567.441 999.174 582.798 878.626 527.948 800.475C507.951 772.024 479.576 750.816 444.323 744.733C436.724 743.793 429.545 743.353 428.385 747.895C428.265 753.857 437.863 758.919 442.643 762.76C494.154 796.254 516.63 855.957 516.13 917.801V918.442C512.47 999.414 474.697 1074 409.849 1123.82C405.309 1127.46 399.57 1131.55 395.991 1135.65C387.192 1146.89 403.429 1147.19 412.548 1144.77ZM1139.78 832.868C1125.22 835.529 1111.17 838.33 1096.83 841.151C1018.78 852.136 964.371 886.229 944.055 965.42C939.096 983.387 937.656 1001.91 935.656 1020.34C935.296 1023.5 935.357 1027.78 937.796 1029.71C941.815 1032.59 945.774 1028.71 948.534 1024.58C975.589 984.108 1008.76 951.375 1051.44 930.586C1065.87 922.983 1082.73 918.802 1097.91 912.199C1124.64 899.794 1148.36 874.705 1152.06 844.513L1152.1 843.892C1152.6 834.349 1149.16 830.927 1139.8 832.868H1139.78ZM1012.5 840.971C1050.52 797.734 1073.07 740.051 1061.19 681.869C1059.03 671.644 1055.52 661.861 1051.7 652.157C1050 647.415 1045.46 639.732 1042.5 640.052C1038.42 639.392 1037.66 650.596 1038.1 655.438C1044.72 758.739 973.13 850.095 883.366 893.732C865.329 902.956 846.112 908.938 826.975 915.2C822.036 916.901 817.397 919.122 815.398 921.343C809.519 927.645 825.376 928.966 831.275 928.466H831.954C902.242 926.045 965.951 895.873 1012.48 840.971H1012.5ZM977.989 231.951C987.787 217.626 999.465 203.94 1011.54 191.455C1013.52 189.535 1016.48 185.973 1016.34 184.393V184.113C1015.42 180.611 1008.7 182.112 1002.56 184.293C986.767 190.635 972.55 201.099 960.332 212.804C911.561 260.943 881.486 325.948 881.766 394.715C881.326 428.629 895.603 460.021 903.922 492.274C910.061 512.562 908.241 534.33 915.18 554.338C934.537 605.398 981.928 564.622 984.768 528.228C991.407 465.643 928.057 440.413 934.896 353.259C938.536 309.942 954.353 268.506 977.989 231.951ZM150.874 969.842C135.897 987.529 154.013 987.989 167.471 983.567C178.889 979.966 189.747 973.904 199.205 966.621C232.819 941.151 244.917 897.634 244.117 856.637V855.957C243.118 831.047 237.979 805.657 228.34 782.368C218.582 759.579 202.985 739.851 184.668 722.204C160.872 699.856 150.034 704.477 167.051 735.009C197.845 792.012 212.363 865.361 184.508 925.725C176.929 942.671 163.292 956.217 150.854 969.822L150.874 969.842ZM754.688 1125.02C762.167 1115.34 772.525 1094.65 751.229 1097.45C699.378 1111.62 655.305 1145.55 612.733 1176.98C581.098 1201.13 545.325 1220.18 505.172 1225.26C497.593 1226.78 483.575 1226.48 479.076 1230.98L478.976 1231.16C479.036 1238.17 503.532 1240.97 510.391 1241.93C605.974 1253.43 701.557 1205.57 754.688 1125.02ZM545.705 1304.75H546.405C597.076 1302.47 644.007 1283.67 674.982 1237.97C685.2 1223.34 686.18 1211.14 666.703 1225.64C603.395 1271.56 500.513 1285.53 440.863 1228.3C434.684 1223.4 427.946 1222.18 428.465 1231.41C430.545 1245.59 440.323 1259.04 450.021 1269.42C474.337 1294.73 510.111 1304.41 545.685 1304.75H545.705ZM778.344 1069.94C773.325 1066.24 761.147 1062.4 749.789 1059.7C715.295 1051.25 678.501 1045.81 643.727 1055.56C578.679 1075.12 536.166 1134.95 474.317 1161.04C451.661 1170.76 427.706 1175.94 402.91 1176.2C391.892 1176.46 380.474 1175 369.436 1174.62C361.797 1174.4 356.558 1175.12 355.518 1177.18C352.618 1179.78 365.196 1187.97 372.535 1191.13C418.587 1211.54 472.738 1216.88 520.369 1199.31C608.634 1167.46 650.786 1074.6 753.908 1079.47H754.608C765.686 1079.29 789.302 1078.44 778.324 1069.94H778.344ZM413.148 1221.6C402.13 1214.82 402.51 1246.45 402.31 1252.63V1253.37C402.99 1270.12 402.07 1294.49 418.867 1303.37C422.726 1304.95 427.046 1304.73 430.405 1302.33C442.983 1290.71 431.685 1272.18 427.905 1257.86C423.986 1247.29 420.107 1227.74 413.148 1221.6ZM214.703 1053.7C211.223 1043.91 188.287 1056.2 179.989 1056.26C129.458 1063.94 73.8473 1057.28 28.7352 1085.45C20.5966 1090.73 9.35842 1096.71 5.09917 1105.26L4.95954 1105.64C3.15986 1116.08 24.036 1105.48 29.735 1103.45C36.2538 1100.91 42.9327 1098.67 49.7515 1097.01C68.2283 1092.41 87.4448 1092.21 106.162 1095.27C123.279 1097.83 140.916 1104.82 157.913 1103.07C173.67 1101.85 187.547 1092.77 198.065 1081.35C204.284 1074.2 215.842 1062.92 214.703 1053.7ZM286.27 1283.99C299.868 1284.29 314.465 1282.49 325.623 1273.9C335.381 1266.92 339.001 1252.01 326.883 1246.27C322.804 1244.19 316.725 1244.15 312.085 1244.79C287.19 1248.07 261.095 1255.97 238.319 1244.47C233.899 1242.69 219.762 1232.81 219.322 1242.25C219.702 1246.39 222.661 1250.17 225.201 1253.37C240.638 1271.2 262.154 1282.89 285.67 1283.99H286.25H286.27ZM92.0839 938.089C88.9845 967.041 116.38 977.245 137.416 959.118C177.149 922.583 176.069 855.637 170.21 805.937L170.11 805.237C168.491 792.672 165.431 769.343 160.552 761.54C159.992 760.6 159.312 759.699 158.413 759.539C156.913 759.399 155.873 762.78 155.273 768.583C154.493 775.726 154.613 784.989 153.893 792.632C149.794 835.809 120.619 869.923 102.003 907.797C97.2834 917.241 93.0038 927.625 92.0839 938.089ZM1184.39 1246.03C1202.57 1258.68 1215.57 1239.57 1212.75 1220.98C1211.77 1211.82 1208.61 1203.07 1204.37 1194.53C1140.08 1070.86 966.951 1055.96 870.228 1150.21C857.79 1162.2 845.852 1175.3 836.674 1189.97C832.474 1196.93 830.475 1202.19 831.355 1203.63L831.414 1203.73C832.394 1205.19 836.554 1202.39 842.512 1196.85C848.072 1191.75 854.651 1184.71 861.289 1178.86C924.698 1123.66 1011.66 1120.1 1085.45 1157.42C1106.53 1167.66 1126.02 1180.91 1142.56 1197.61C1157.98 1211.58 1167.86 1233.37 1184.39 1246.01V1246.03ZM1290.45 1173.74L1290.61 1173.94C1291.85 1175.32 1295.05 1173.46 1298.59 1170.08C1311.39 1157.3 1320.85 1141.69 1325.59 1124.06C1344.96 1053.94 1330.11 988.109 1283.92 932.647C1270 915.941 1254.82 900.575 1239.88 884.989C1236.2 880.947 1229.3 876.165 1224.45 879.666C1212.93 890.671 1231.96 914.32 1237.54 925.805C1245.62 939.81 1255.02 953.055 1263.04 967.041C1293.43 1020.82 1313.75 1085.93 1296.25 1147.79C1294.81 1155.32 1288.39 1167.04 1290.47 1173.72L1290.45 1173.74ZM1244.14 74.4093C1244.14 74.4093 1244.2 74.4293 1244.22 74.4493C1249 76.25 1253.66 71.5282 1252.24 66.6262C1252.12 66.2261 1252 65.8059 1251.86 65.4058C1251.26 63.6251 1250.04 62.0044 1248.9 60.4438C1236.04 42.7368 1224.37 23.6693 1224.89 0.120042H1186.93C1186.59 26.3504 1217.07 63.7851 1244.12 74.4293L1244.14 74.4093ZM1209.43 933.888C1197.13 933.288 1188.97 944.932 1193.67 956.237C1198.33 968.301 1209.49 977.185 1217.79 986.929C1237.28 1008.36 1252.78 1032.33 1261.84 1059.54C1263.68 1065.68 1272.5 1085.85 1274.58 1070.82C1272.2 1031.33 1255.66 993.691 1237.38 958.758C1231.62 947.913 1223.23 934.928 1210.03 933.928L1209.43 933.888ZM890.724 1279.72C874.027 1298.69 878.466 1331.62 907.001 1333.67C931.057 1332.94 947.614 1311.9 967.351 1300.87C1001.36 1279.44 1040.04 1274.88 1079.19 1281.92C1084.03 1282.51 1095.11 1285.31 1098.23 1282.08L1098.37 1281.8C1098.69 1275.98 1089.17 1270.96 1084.71 1268C1028.08 1235.77 938.636 1228.06 890.724 1279.72ZM1085.83 1179.5C1052.96 1161.62 1012.92 1159.48 977.169 1167.32C940.456 1175.9 904.842 1195.31 882.006 1225.9C871.487 1241.13 881.926 1240.73 893.764 1234.15C929.697 1214.26 973.03 1204.83 1013.16 1215.56C1030.18 1219.82 1047.28 1227.6 1064.83 1228.46H1065.49C1099.77 1229.76 1120.74 1199.05 1085.81 1179.5H1085.83ZM176.51 1119.88C157.653 1129.46 135.976 1130.55 115.6 1125.68C105.522 1124.2 92.944 1117.04 83.3457 1121.46C77.1068 1127.08 85.3853 1136.57 92.824 1142.99C107.142 1154.67 125.098 1161.12 143.435 1161.46H144.135C166.531 1161.92 191.447 1152.91 200.645 1130.75C202.645 1125.36 204.545 1117.1 199.445 1113.2C193.247 1109.46 182.948 1116.96 176.51 1119.86V1119.88ZM293.309 1329.18H293.969C325.164 1328.44 351.999 1310.16 372.635 1286.59C376.954 1281.4 382.373 1274.9 383.033 1268.2C381.793 1255.95 359.437 1277.06 354.018 1279.24C344.84 1284.81 334.841 1288.95 324.503 1291.79C294.029 1300.21 270.873 1296.75 243.258 1283.09C230.34 1278.62 229.02 1289.29 234.139 1298.01C245.217 1317.42 270.573 1329.4 293.289 1329.16L293.309 1329.18ZM1064.99 265.164C1085.73 246.977 1112.41 236.233 1138.6 228.37C1142.96 226.989 1155.46 224.228 1152.04 217.906C1147.34 212.884 1132.54 213.724 1124.58 213.424H1123.94C1030.66 213.104 970.63 294.736 973.889 380.97C974.809 454.019 1068.15 518.984 1034.82 590.352C1030.74 597.795 1027.12 612.161 1040.82 607.299C1049.64 603.038 1055.62 594.314 1061.59 586.791C1095.01 544.855 1079.63 491.333 1054.84 449.337C1035.96 418.305 1016.14 383.831 1024 346.476C1030.7 316.765 1043.64 287.213 1064.99 265.184V265.164ZM749.289 257.641C734.752 266.005 718.574 272.087 701.557 275.268C697.218 276.309 691.359 277.189 688.459 280.41C685.34 287.253 704.717 285.933 710.216 286.033H710.856C769.526 284.892 830.255 269.086 874.067 229.21C924.238 176.79 978.669 149.999 1050.74 140.035C1068.63 135.453 1062.91 128.851 1049.1 128.811C950.574 129.551 851.811 165.965 780.204 233.732C770.785 242.756 760.507 251.259 749.289 257.621V257.641ZM1000.44 110.524L1001.06 110.443C1006.1 110.103 1013.14 106.582 1010.98 103.281C1006.1 97.0982 993.066 95.5776 985.748 91.6361C959.452 80.1716 945.255 53.0809 924.318 34.7737C913.96 24.6297 894.283 22.2087 890.024 39.1954C887.405 51.2202 894.224 63.6451 901.202 73.1688C923.398 102.7 965.131 110.864 1000.44 110.524ZM1076.63 973.743C1051 992.091 1021.26 1004.02 993.666 1019.38C969.87 1033.19 948.254 1050.37 928.758 1070.04C923.739 1075.74 914.38 1083.43 912.98 1090.41V1090.63C913.22 1091.71 914.44 1091.85 916.419 1091.07C920.999 1089.19 925.538 1085.11 929.597 1081.89C944.935 1069.2 961.872 1059.64 979.968 1052.93C1001.54 1044.53 1025.42 1042.35 1047.66 1036.31C1087.93 1025.6 1123.44 1007 1153.4 975.564C1183.09 944.492 1206.59 907.677 1203.11 862.2C1202.15 848.594 1199.31 835.329 1196.59 822.064C1192.43 800.715 1185.35 805.517 1182.65 823.104C1169.46 885.489 1127.96 938.37 1076.65 973.743H1076.63ZM1189.83 659.06C1204.61 655.358 1214.03 600.677 1215.17 586.091C1218.09 514.743 1229.22 462.742 1275.84 406.18C1285.41 396.316 1288.79 383.611 1271.42 393.355C1209.65 428.169 1165.12 489.373 1164.68 560.561V561.241C1164.84 592.633 1170.16 622.785 1180.13 648.655C1181.85 652.917 1184.43 659.54 1189.83 659.06ZM37.2737 1117.54C27.8754 1119.54 11.2581 1123.56 1.07985 1126.16V1142.41C22.936 1137.33 36.6339 1137.83 53.8709 1137.37C56.8304 1137.29 61.4294 1134.77 62.1893 1132.39C63.1091 1129.5 61.7293 1124.72 59.6096 1122.24C53.6507 1115.3 45.1523 1115.86 37.2537 1117.54H37.2737ZM569.441 1048.11C565.561 1055.44 566.801 1060.3 574.44 1054.8C617.172 1008.4 631.35 943.532 632.43 881.347V880.687C633.01 774.825 567.941 633.73 445.182 644.254C392.591 648.695 341.481 692.433 334.462 746.114C331.882 766.542 335.581 787.41 346.039 804.997C349.419 811.019 357.678 819.923 362.817 814.221C367.076 809.519 367.696 802.536 369.236 796.554C373.395 776.526 380.034 756.638 392.611 739.791C434.904 682.709 503.772 718.643 537.406 765.241C578.899 818.742 599.015 885.389 598.276 952.935C598.635 987.209 589.137 1019.82 569.441 1048.13V1048.11ZM52.6709 204.38C52.8509 204.2 52.9908 203.94 53.0707 203.64C53.7506 201.139 51.4713 198.858 48.8918 199.038C48.2919 199.078 47.7118 199.198 47.2119 199.419C36.7737 204.26 26.9553 210.643 16.0572 214.384C8.55852 216.945 6.03943 217.946 1.04031 219.106V243.996C21.5967 235.773 37.8535 219.226 52.6709 204.38ZM182.048 157.202C178.569 147.258 168.631 157.002 165.731 162.424C111.681 238.894 201.665 347.137 282.811 304.6C290.129 301.159 318.205 279.19 299.308 275.408C237.439 269.426 185.008 233.492 182.688 169.647V169.047C182.568 165.145 183.088 161.083 182.048 157.242V157.202ZM0.880179 92.7765C0.880179 110.103 0.73993 130.691 1.09987 146.918C15.6373 147.618 24.5958 144.597 32.6344 140.495C45.7921 133.813 47.232 119.607 37.2937 108.463C27.9354 97.9786 15.7576 93.7969 0.880179 92.7565V92.7765ZM1.11988 176.409V205.421C21.0964 200.239 37.3938 190.075 52.3912 177.79C59.3899 172.048 65.5086 165.185 71.6275 158.442C71.9275 158.122 72.0875 157.682 72.1875 157.202C72.7674 154.261 70.0278 151.74 67.0683 152.04C66.7283 152.08 66.4084 152.12 66.0885 152.18C65.1286 152.34 64.4292 153.56 63.4893 154.161C24.1162 179.651 3.8994 175.929 1.11988 176.409ZM131.997 198.278L131.877 198.158C125.418 197.978 118.02 229.05 115.26 235.853C106.062 266.345 94.5238 297.117 94.9238 329.35C95.2237 343.915 98.8428 360.582 110.641 369.966C127.018 382.871 140.316 367.745 140.676 350.398C141.475 338.273 138.976 326.068 136.796 314.164C130.717 283.492 127.778 252.76 131.457 221.787C131.997 215.445 134.497 202.68 131.997 198.278ZM26.0159 429.269C42.433 493.054 84.4255 546.635 147.274 573.366C156.593 576.887 168.75 583.21 178.069 581.209L178.469 581.069C194.846 572.565 154.873 526.607 147.395 516.824C125.438 489.713 103.782 461.722 84.1854 432.63C55.7104 387.232 33.1747 334.472 47.0122 280.27C48.212 275.769 50.8313 262.003 46.2521 262.563C42.7327 262.964 37.5337 271.567 35.774 276.249C15.1576 324.988 11.6384 376.728 25.9959 429.249L26.0159 429.269ZM1121.4 722.264C1120.78 708.919 1115.4 696.654 1110.11 684.61C1101.37 665.102 1094.55 644.554 1086.35 624.766C1084.05 618.584 1076.09 605.839 1074.65 620.424C1081.17 702.757 1104.63 745.594 1049.24 818.822C1046.24 823.584 1044.58 827.366 1045.72 828.886L1045.88 829.087C1047.14 830.587 1051.3 829.567 1056.38 827.266C1096.59 808.638 1122.98 766.422 1121.42 722.305L1121.4 722.264ZM855.07 1273.38C853.091 1247.49 858.93 1223.42 877.187 1203.49C877.367 1203.29 877.526 1203.05 877.646 1202.81C879.266 1199.49 875.927 1195.85 872.268 1196.45C871.868 1196.51 871.467 1196.59 871.068 1196.69C870.088 1196.91 869.328 1197.99 868.448 1198.65C818.677 1236.21 803.599 1322.84 863.409 1370.96H931.457C884.585 1343.39 858.63 1319.92 855.07 1273.38ZM776.904 1175.34C777.684 1170.76 777.084 1165.94 777.124 1161.22C772.485 1163.6 766.986 1165.1 763.327 1168.54C744.31 1186.31 734.232 1209.18 727.853 1233.91C720.414 1262.76 744.75 1348.89 762.486 1371H828.495C823.556 1364.82 819.177 1358.7 814.338 1352.43C773.405 1299.67 766.066 1239.91 776.924 1175.34H776.904ZM702.697 1287.97C703.057 1285.31 702.417 1282.45 701.737 1279.78C698.758 1267.92 687.34 1264.24 675.902 1271.34C665.984 1277.5 659.685 1285.89 656.165 1295.95C647.027 1322.12 650.266 1347.09 665.184 1370.98H736.051C735.551 1370.02 698.578 1318.3 702.697 1287.97ZM1277.66 1146.57V1145.89C1277.48 1131.97 1274.42 1116.28 1268.28 1103.93C1263.24 1094.57 1257.2 1096.27 1257.64 1108.06C1265.26 1191.73 1221.69 1206.11 1225.95 1249.89C1226.21 1261.88 1238.64 1284.85 1243.64 1261.3C1245.82 1238.21 1260.78 1218.86 1268.04 1197.33C1273.8 1180.66 1277.32 1163.54 1277.64 1146.57H1277.66ZM426.985 1320.9C386.892 1325.9 347.999 1339.91 306.767 1336.63C306.207 1336.59 305.627 1336.75 305.047 1337.05C302.047 1338.59 301.768 1342.89 304.447 1344.91C304.927 1345.27 305.447 1345.51 305.967 1345.57C318.825 1346.79 331.762 1348.23 344.64 1347.97C383.053 1347.21 421.526 1346.19 459.04 1356.17C471.517 1359.5 483.755 1364.18 495.173 1370.98H586.298C540.566 1334.43 474.737 1314.94 427.025 1320.9H426.985ZM1018.94 1313.92C994.506 1314.74 971.51 1321.08 951.013 1334.83C948.694 1336.37 947.634 1339.77 945.994 1342.31C948.714 1342.81 951.654 1344.25 954.153 1343.69C981.268 1337.53 1007.62 1340.57 1032.76 1351.51C1044.4 1356.57 1054.82 1364.4 1065.79 1370.98H1158.92C1107.95 1333.81 1064.61 1312.4 1018.96 1313.92H1018.94ZM1181.95 1274.84C1169.26 1259.82 1153.72 1247.07 1138.68 1234.17C1129.44 1226.24 1117.68 1225.16 1106.59 1229.78C1102.17 1231.63 1097.37 1236.57 1096.21 1241.01C1095.33 1244.39 1098.97 1250.27 1102.25 1253.15C1108.85 1258.96 1116.86 1263.08 1123.8 1268.54C1157.3 1294.93 1176.93 1329.96 1186.87 1370.94H1225.03C1224.65 1367.38 1224.57 1363.76 1223.87 1360.28C1217.33 1328.16 1202.87 1299.53 1181.95 1274.82V1274.84ZM63.3492 648.335C40.8732 637.891 20.9166 623.466 0.860163 606.199C0.860163 632.069 0.720363 657.679 1.04031 681.128C14.418 691.152 25.1359 697.115 35.794 699.856C46.3521 702.577 57.69 702.096 68.6481 703.397C92.9638 706.258 114.86 713.821 129.577 735.29C130.557 736.71 134.656 737.29 135.616 737.01C146.214 733.929 130.178 708.679 123.979 699.495C108.701 676.927 88.2049 659.86 63.3692 648.335H63.3492ZM142.475 1239.99C142.875 1239.65 143.155 1239.17 143.355 1238.61C144.755 1234.83 141.336 1231.02 137.356 1231.55C135.817 1231.75 134.417 1232.13 133.317 1232.93C90.9643 1264.24 78.1865 1324.46 103.682 1370.96H145.155C140.635 1364.72 135.876 1358.62 131.617 1352.19C107.061 1315.14 110.021 1268.8 142.495 1239.97L142.475 1239.99ZM79.4065 1263.92C60.7297 1241.39 24.8757 1239.57 1.07985 1246.51C0.719914 1260.22 0.880179 1277.16 0.880179 1291.95C21.3166 1293.23 36.8339 1302.53 53.391 1308.36C58.0702 1310 62.6691 1313 67.6082 1312.72C84.2653 1311.78 90.0447 1299.01 88.4649 1285.33C87.6051 1277.88 84.1856 1269.68 79.4065 1263.92ZM0.82013 1331.24V1370.98H71.2477C55.7504 1347.45 31.4348 1331.94 0.82013 1331.24ZM319.684 1225.34C334.982 1217.46 346.739 1188.45 324.583 1181.99C308.786 1179.08 294.149 1189.55 279.051 1192.71C260.994 1197.59 242.718 1197.49 225.181 1191.65C217.682 1189.97 204.985 1181.77 198.466 1186.65L198.245 1186.95C196.306 1190.27 199.785 1195.51 202.205 1198.59C229.6 1231.51 282.171 1247.75 319.684 1225.36V1225.34ZM1316.43 1370.8C1334.67 1370.8 1352.74 1370.98 1370.98 1370.98V1331.24C1359.28 1330.9 1349.66 1335.11 1340.05 1340.01C1327.69 1346.29 1316.59 1351.93 1316.41 1370.8H1316.43ZM192.987 1223.46C187.828 1216.7 182.408 1209.96 176.129 1204.25C145.435 1176.32 108.361 1162.6 67.8684 1157.26C47.772 1154.59 26.6354 1149.43 1.07985 1155.19C0.499952 1171.44 0.940227 1199.51 0.940227 1216.68C71.0279 1194.93 134.857 1200.71 184.468 1231.43C185.268 1231.93 186.268 1232.07 187.368 1232.09C191.107 1232.09 194.186 1228.78 193.626 1225.08C193.526 1224.44 193.327 1223.88 192.987 1223.44V1223.46ZM187.947 1260.82C188.267 1249.31 179.769 1242.77 168.271 1243.89C160.192 1244.67 154.533 1249.03 150.054 1255.47C133.017 1279.98 131.717 1307.13 138.196 1334.89C141.095 1347.31 147.154 1358.98 151.774 1371H186.607C183.068 1350.17 178.729 1315 183.768 1289.41C185.628 1279.96 187.668 1270.4 187.947 1260.84V1260.82ZM1244.18 286.833C1229.39 283.972 1213.93 281.491 1199.07 282.691C1164.56 285.452 1139.44 305.3 1119.52 332.371C1119.34 332.611 1119.2 332.871 1119.1 333.151C1117.62 336.873 1121.78 340.614 1125.5 339.154C1125.96 338.973 1126.38 338.773 1126.78 338.513C1139.24 330.37 1152.46 323.928 1167.42 323.267C1186.69 322.427 1206.03 322.967 1225.33 322.607C1241.86 322.287 1258.62 323.127 1274.88 320.666C1314.21 314.684 1342.94 289.634 1370.98 263.924V257.281C1366.32 259.622 1361.32 261.463 1357.06 264.404C1322.65 288.294 1285.06 294.756 1244.16 286.833H1244.18ZM1342.42 440.393C1343.56 467.864 1348.78 485.751 1360.04 510.601C1361.88 514.663 1368.18 525.867 1371 529.489V288.834C1368.94 292.015 1366.38 294.976 1364.9 298.418C1345.14 343.795 1340.43 391.594 1342.44 440.413L1342.42 440.393ZM1253.16 201.719C1245 197.198 1238.02 190.535 1229.86 186.033C1215.55 178.09 1198.17 179.751 1187.11 189.435C1174.59 200.399 1174.59 213.664 1178.63 228.81C1182.73 244.156 1193.71 251.319 1206.55 256.981C1228.51 266.645 1251.82 268.726 1275.48 268.006C1309.05 266.985 1340.99 259.302 1371 243.996V219.106C1368.82 219.346 1366.64 219.506 1364.48 219.847C1325.39 225.989 1288.03 221.107 1253.18 201.719H1253.16ZM1316.43 0.0200045C1316.43 7.76305 1315.77 14.3857 1316.57 20.8482C1318.39 35.9141 1322.33 50.3398 1336.09 60.1837C1338.15 61.6443 1341.45 62.4646 1343.9 62.1045C1344.98 61.9444 1346.3 57.9428 1346.04 55.862C1343.56 36.9145 1353.86 23.5693 1371 21.4485V0H1316.43V0.0200045ZM1349.52 571.765C1349.38 571.305 1349.16 570.865 1348.88 570.445C1346.38 566.723 1340.47 567.163 1338.73 571.305C1338.55 571.725 1338.45 572.145 1338.41 572.565C1337.25 586.571 1336.09 600.637 1336.21 614.662C1336.43 639.072 1346.9 659.4 1363.44 676.807C1365.36 678.827 1368.44 679.728 1370.98 681.148V606.459C1360.32 597.075 1353.54 585.371 1349.52 571.785V571.765ZM1285.82 0.0800333H1249.9C1250.18 2.26089 1256.42 57.3626 1324.85 120.127C1338.79 129.971 1353.6 144.357 1370.98 146.918V92.7765C1342.76 91.6761 1296.95 39.3955 1285.82 0.0800333ZM1312.71 1301.37C1312.61 1301.57 1312.53 1301.79 1312.47 1302.01C1310.93 1306.83 1316.65 1310.96 1320.89 1308.2C1320.97 1308.14 1321.05 1308.1 1321.13 1308.04C1336.33 1297.17 1352.76 1291.33 1371 1291.87V1246.51C1343 1253.91 1325.45 1274.68 1312.71 1301.39V1301.37ZM1290.89 144.737C1285.23 136.294 1281.06 126.87 1275.7 118.207C1269.1 107.562 1259.62 101.32 1246.66 103.141C1234.22 104.901 1225.99 112.764 1223.03 124.589C1221.45 130.952 1221.81 138.374 1223.37 144.837C1227.01 160.063 1237.4 170.967 1249.64 179.871C1286.31 206.501 1327.41 213.044 1371 205.401V176.389C1362.28 175.269 1314.33 176.429 1290.89 144.717V144.737ZM1338.69 1152.43C1339.39 1152.29 1340.07 1152.13 1340.75 1151.93C1353.84 1148.05 1357.84 1146.39 1370.88 1142.41V1126.16C1354.8 1130.07 1346.24 1136.07 1335.29 1146.01C1335.27 1146.03 1335.25 1146.05 1335.23 1146.07C1332.49 1148.61 1335.03 1153.17 1338.69 1152.43ZM1249.9 1370.98H1285.87C1289.39 1290.97 1314.05 1242.21 1362.5 1219.76C1365.24 1218.5 1368.16 1217.66 1371 1216.62V1155.21C1293.47 1176.34 1229.16 1287.45 1249.9 1370.98ZM1352.74 1094.63C1358.96 1088.25 1364.98 1082.07 1370.98 1075.9V1018.4C1359.8 1032.47 1346.06 1071.92 1345.02 1091.23C1344.8 1095.39 1349.82 1097.63 1352.74 1094.65V1094.63ZM1336.79 692.313C1334.27 686.13 1330.23 680.168 1325.65 674.826C1314.45 661.801 1295.95 663.061 1286.91 677.347C1279.84 688.531 1277.9 700.536 1280.78 713.061C1288.69 747.414 1328.87 773.185 1371 778.227V725.346C1353.84 718.523 1342.95 707.359 1336.79 692.313ZM1283.62 849.715C1257.74 831.668 1239.06 807.218 1223.31 780.247C1223.15 779.987 1222.99 779.747 1222.79 779.507C1219.35 775.285 1212.17 777.506 1211.79 782.928C1211.75 783.369 1211.79 783.809 1211.87 784.249C1223.97 845.053 1257.24 889.31 1315.09 913.36C1332.85 920.743 1351.72 923.464 1371 919.102V867.642C1338.59 877.726 1310.07 868.182 1283.62 849.715ZM1325.73 806.478C1300.13 803.917 1277.74 793.673 1258.86 777.306C1258.42 776.926 1257.9 776.606 1257.34 776.326C1253.22 774.345 1248.24 777.646 1248.88 782.168C1248.94 782.648 1249.08 783.108 1249.28 783.549C1251.82 789.051 1255.16 794.453 1259.22 799.155C1275.7 818.242 1297.77 829.767 1322.85 836.789C1338.57 841.191 1354.6 843.312 1371 840.011V805.197C1355.9 805.757 1340.61 807.958 1325.75 806.478H1325.73ZM221.342 1311.6C216.082 1305.79 213.063 1299.91 208.564 1294.37C208.204 1293.91 207.744 1293.53 207.224 1293.19C204.524 1291.39 200.665 1292.55 199.665 1295.63C199.545 1296.03 199.466 1296.43 199.486 1296.81C199.745 1305.05 203.465 1342.95 217.282 1370.98H335.661C323.663 1367.74 240.398 1334.67 221.322 1311.6H221.342ZM1243.86 652.077C1289.91 610.74 1322.93 556.079 1328.51 493.714C1328.91 476.168 1329.27 455.679 1319.09 440.473C1313.77 433.311 1304.85 428.929 1295.41 428.709C1277.66 428.249 1266.1 445.616 1260.42 460.341C1248.1 504.199 1260.18 550.817 1248.64 594.874C1242.24 620.664 1230.26 644.574 1214.53 665.942C1211.45 670.084 1204.83 678.807 1206.37 681.748L1206.49 681.989C1207.59 684.109 1212.91 680.868 1214.97 679.007C1224.71 670.284 1233.94 660.76 1243.86 652.077ZM798.82 1243.83L799 1243.87C799.84 1243.99 800.56 1243.05 801.08 1241.27C802.899 1233.35 802.2 1224.68 803.159 1216.36C804.839 1197.19 811.138 1178.26 821.556 1162.14C840.253 1133.69 862.969 1107.84 886.205 1083.27C893.804 1075.06 901.322 1066.7 906.741 1056.84C926.878 1019.28 902.162 994.472 866.148 1018.9C805.019 1066.7 778.364 1152.95 792.621 1228.78C793.601 1233.33 795.701 1242.25 798.82 1243.85V1243.83ZM1313.01 320.766C1279.16 340.794 1238.52 328.589 1202.21 338.773C1186.39 342.475 1166.24 352.739 1164.62 371.006C1162.76 389.393 1183.61 401.758 1200.09 401.678H1200.73C1244.36 397.457 1285.3 367.125 1316.09 337.073C1322.35 330.53 1329.99 324.388 1334.65 316.765C1340.59 302.799 1317.53 318.706 1313.01 320.746V320.766ZM1215.69 91.2559C1210.39 70.988 1187.43 57.2626 1167.34 56.5423H1166.66C1136.14 56.1421 1111.45 74.1292 1098.89 100.48C1097.23 104.401 1093.19 111.964 1097.05 115.005C1100.03 116.746 1108.13 110.123 1112.09 107.262C1129.44 94.4172 1144.46 89.2151 1165.04 95.7177C1176.83 99.039 1187.51 106.622 1199.35 109.183C1209.89 111.504 1218.15 101.74 1215.71 91.2559H1215.69ZM1158.4 264.824C1164.28 260.923 1175.51 250.599 1162.6 248.078C1100.49 248.078 1046.26 296.977 1047.92 360.642V361.302C1048.24 378.989 1052.84 396.636 1061.93 414.983C1070.37 431.49 1079.81 426.368 1078.79 409.281C1077.55 351.478 1112.61 298.097 1158.4 264.824ZM1122.64 371.346C1119.4 368.725 1114.03 364.143 1110.05 366.684C1108.25 368.105 1108.61 371.606 1109.79 375.428C1114.65 388.833 1117.24 403.219 1112.99 417.044C1108.19 434.351 1094.23 447.116 1087.23 463.282C1081.51 475.127 1082.79 490.833 1091.35 501.037C1099.99 510.241 1111.75 501.998 1119.78 494.895C1137.88 478.829 1147.62 455.96 1148.44 431.85V431.17C1148.18 408.081 1139.62 386.552 1122.64 371.346ZM1129.06 551.877C1129.22 538.372 1132.8 525.007 1139.58 512.342C1141.12 509.301 1143.6 503.318 1140.38 501.638C1128.18 499.217 1112.23 520.065 1107.85 530.549C1091.19 570.905 1095.47 616.143 1112.77 655.498C1124.96 684.33 1141.76 712.24 1142.38 744.513V745.153C1142.56 759.199 1136.34 774.985 1125.76 786.87C1119.84 794.133 1110.87 800.475 1110.19 810.499C1111.75 828.947 1138.52 815.321 1147.58 810.559C1156.24 805.577 1163.56 798.975 1168.96 790.371C1184.49 762.78 1182.79 727.206 1175.31 697.315C1163.48 656.459 1143.52 618.444 1132.28 577.507C1130.08 569.164 1128.9 560.421 1129.04 551.877H1129.06ZM1241.58 1115.8C1241.16 1112.72 1240.56 1109.6 1239.82 1106.48C1228.47 1057.72 1187.17 1031.87 1140.6 1030.69H1139.92C1121.12 1030.63 1101.91 1037.13 1087.45 1049.17C1080.85 1054.16 1069.51 1068.56 1084.43 1070.4C1127.72 1070.68 1167.92 1098.13 1190.37 1134.37C1197.77 1144.71 1202.89 1164.82 1218.09 1164.94C1238.8 1161.9 1244.16 1133.45 1241.6 1115.78L1241.58 1115.8ZM62.0692 794.433C62.2691 793.052 61.2496 791.692 59.8498 791.672C59.6099 791.672 59.3898 791.712 59.1898 791.812C42.2728 801.035 19.717 803.336 1.04031 805.197C0.640377 814.541 0.860163 830.607 0.860163 840.011C28.6953 837.83 59.2096 814.021 62.0491 794.433H62.0692ZM63.6089 735.59C44.6723 741.832 27.2356 736.43 9.93865 729.207C7.27912 728.107 4.47943 726.526 1.25999 725.466V778.246C22.9962 778.807 40.3531 770.824 55.7304 757.878C60.7296 753.677 65.0287 748.495 69.108 743.333C72.2874 739.311 71.1076 731.988 63.6089 735.57V735.59ZM922.339 940.43C924.438 935.969 929.957 924.884 924.038 923.304C917.939 923.604 911.62 932.927 906.541 937.989C890.344 955.196 871.607 968.381 849.991 977.345C822.856 989.01 792.461 991.951 763.466 986.729C744.11 983.788 725.053 976.265 705.637 976.225C670.263 974.924 641.368 999.754 623.751 1028.49C618.792 1035.93 615.812 1046.83 627.15 1043.15C632.649 1041.11 638.369 1037.07 643.828 1034.39C655.586 1028.22 669.323 1027.82 682.921 1028.02C707.177 1028.48 732.372 1034.23 756.028 1036.13H756.668C831.815 1037.83 893.584 1003.88 922.339 940.43ZM92.9641 863.58C111.861 842.092 126.198 818.122 131.397 789.591C131.617 788.371 131.317 787.05 130.797 785.709C129.358 781.948 124.818 780.327 121.379 782.428C120.399 783.028 119.519 783.709 118.799 784.529C113.08 791.232 108.581 798.995 102.722 805.537C75.187 836.149 42.1728 857.858 1.21996 867.102V919.102C43.8925 908.598 70.968 888.59 92.9641 863.58ZM43.6124 1055.34C42.9526 1065.82 65.349 1053.39 70.988 1052.87C84.1057 1049.33 97.8031 1049.89 111.301 1050.39C139.376 1052.19 166.711 1047.15 190.227 1031.41C230.58 1004.12 183.788 995.612 157.853 994.072H157.153C118.959 992.411 57.61 1018.34 43.6124 1055.34ZM242.078 1161.12H242.698C311.306 1162.24 366.796 1088.71 365.956 997.413C365.836 990.53 364.876 976.164 359.577 974.164C351.439 975.424 351.919 1005.54 348.939 1014.2C336.681 1074.52 293.209 1105.02 236.299 1115.96C202.505 1126.06 205.784 1161.22 242.058 1161.12H242.078ZM183.488 77.5505C189.427 89.1151 200.145 95.9978 213.883 95.8577C223.661 95.7577 227.94 89.3152 224.421 80.2916C223.041 76.7302 221.062 73.3089 218.822 70.1876C204.444 50.0597 186.787 6.58259 186.587 0.100038C177.829 0.100038 161.752 0.100038 151.754 0.100038C154.753 10.8043 156.033 15.4261 158.672 21.8886C166.371 40.676 174.17 59.5034 183.468 77.5505H183.488ZM0.840146 1075.64C27.4155 1052.73 46.9318 1026.5 62.0491 997.213C68.0081 985.648 72.1275 972.563 74.1271 959.718C75.4269 951.395 72.9875 941.491 69.3482 933.628C62.8093 919.442 45.4722 918.142 36.2338 930.787C30.6148 938.49 26.2559 947.333 22.5165 956.177C17.0375 969.122 12.4179 995.152 0.579938 1019.36C1.03986 1035.79 0.840146 1057.74 0.840146 1075.64ZM249.357 27.7109C281.991 45.1378 317.105 50.2998 353.538 47.1786C379.674 44.9577 404.569 38.175 426.786 23.6493C426.826 23.6293 426.866 23.5893 426.906 23.5693C431.745 20.268 428.745 12.2848 422.926 13.0251C422.886 13.0251 422.866 13.0251 422.826 13.0251C393.431 17.3468 337.781 1.0004 335.501 0.0800333C297.988 -0.020006 256.675 0.0800333 216.762 0.0800333C226.461 12.9251 237.219 21.2284 249.357 27.6909V27.7109ZM69.748 289.754C69.2681 301.839 70.2878 313.984 71.1677 326.068C71.1677 326.329 71.2478 326.589 71.3478 326.829C72.6076 330.15 77.3866 329.99 79.1462 326.909C79.3862 326.509 79.6063 326.088 79.7863 325.648C80.3062 324.528 79.7863 322.927 79.7863 321.547C79.7863 299.578 81.6261 277.629 89.3847 257.101C98.4431 233.132 105.942 207.922 120.019 186.513C156.313 131.312 159.692 27.831 145.135 0.120042H103.662C109.881 12.785 115.18 23.2091 117 34.3535C124.059 77.8907 119.239 120.147 103.342 161.344C87.325 202.84 71.5477 244.556 69.748 289.754ZM46.052 47.2386C53.3507 62.2245 56.1503 78.0507 52.6509 94.6773C50.6512 104.181 53.871 111.284 61.4897 114.705C68.4884 117.846 76.7869 115.786 81.4261 107.722C85.7454 100.219 96.3034 70.988 79.3464 15.7062C77.7267 10.4041 71.2477 0.100038 71.2477 0.100038C52.451 0.100038 19.6968 0.100038 0.82013 0.100038C0.82013 3.46136 1.11988 14.0055 1.11988 21.4485C22.0562 20.5881 37.174 28.9914 46.0324 47.2186L46.052 47.2386ZM0.920211 515.323C0.920211 518.844 1.04031 525.327 1.04031 529.489C14.5979 549.897 36.8736 591.173 67.5682 613.982C77.6464 621.485 88.8245 625.586 101.082 627.107C117.439 629.148 134.597 621.365 141.135 609.06C146.334 599.316 143.795 587.671 135.656 582.669C75.5269 545.775 33.6143 494.375 13.2379 426.488C1.39995 387.092 -1.25962 347.037 12.6979 307.501C17.7171 293.296 25.476 280.07 31.5149 266.185C31.9949 265.104 31.8945 263.764 31.6346 262.363C31.1546 259.822 28.5751 258.242 26.1355 259.102C25.0157 259.502 24.0161 260.002 23.3162 260.783C20.4567 264.064 6.63933 276.929 1.04031 288.814C-1.1793 322.407 0.840166 382.03 0.860163 415.764C0.860163 448.957 0.820228 482.13 0.920211 515.323ZM290.109 69.6274C283.87 66.4662 277.712 62.9448 271.493 59.8036C267.374 57.7828 262.474 56.0621 259.735 57.4226C255.036 59.8836 259.295 66.9664 261.935 70.4277C290.57 107.162 327.243 128.751 367.796 130.611H368.476C484.016 133.733 501.812 -3.84152 470.178 29.3916C428.845 90.7157 354.538 103.581 290.109 69.6274ZM981.208 24.6497C981.628 24.5697 982.008 24.4096 982.388 24.1895C986.247 21.9887 985.707 15.9863 981.548 14.3857C981.108 14.2256 980.669 14.1256 980.229 14.1056C965.431 13.9855 939.055 2.68105 931.437 0.200076C911.5 -0.0800346 883.326 0.100037 863.389 0.0600212C894.004 24.6497 954.633 29.9918 981.208 24.6297V24.6497ZM1179.87 48.7192C1183.19 49.9397 1186.83 47.5587 1187.29 44.0574C1187.41 43.077 1187.39 42.1766 1187.07 41.3963C1180.37 25.6701 1160.72 0.140055 1158.66 0.140055C1125.26 0.0200073 1099.15 0.0600212 1065.77 0.0600212C1125.08 33.4532 1140.86 18.4673 1178.67 48.0789C1179.03 48.359 1179.43 48.5791 1179.89 48.7392L1179.87 48.7192ZM991.406 74.9895C1005.26 83.793 1021.54 88.2347 1038.08 88.4548H1038.8C1064.35 88.7349 1090.53 76.8503 1105.49 55.842C1109.97 50.0797 1113.94 39.5556 1110.95 35.9141C1100.57 23.2291 1064.17 70.5878 1003.14 59.4834C983.728 55.7019 970.41 59.9436 991.406 74.9895ZM858.93 79.5113C866.748 81.8322 875.187 82.2924 883.405 82.8526C885.465 82.9927 888.604 80.6918 889.604 78.671C890.264 77.3505 888.365 74.1892 886.845 72.5286C885.045 70.5278 882.406 69.2873 880.186 67.6466C856.93 50.3598 854.19 40.4959 828.475 0.100038C806.419 0.100038 784.903 0.100038 762.466 0.100038C763.646 2.38094 818.597 67.5066 858.93 79.5313V79.5113ZM586.737 142.456C586.777 142.796 586.858 143.116 586.938 143.456C588.397 149.039 595.536 150.239 598.675 145.417C599.055 144.817 599.355 144.217 599.555 143.557C603.734 129.311 608.374 114.985 610.253 100.34C614.573 66.8863 621.471 45.3379 591.077 5.80228C589.537 3.36132 588.617 2.46097 586.258 0.140055C556.463 0.140055 525.448 0.100038 495.133 0.100038C507.331 8.44332 518.409 15.266 528.808 24.1095C565.161 55.0217 580.219 96.6981 586.717 142.476L586.737 142.456ZM891.604 114.965C891.804 114.965 892.004 114.905 892.204 114.865C895.843 113.985 896.903 108.563 893.604 106.782C892.344 106.102 888.585 105.001 887.225 104.801C822.116 94.6973 756.408 31.1323 736.031 0.100038C713.615 0.100038 689.479 0.100038 665.164 0.100038C666.943 3.78149 668.703 6.22245 670.023 8.46333C720.154 93.937 814.278 121.448 891.604 114.945V114.965ZM593.356 202.86C589.557 206.721 584.618 209.563 582.718 214.304C581.158 218.726 585.298 220.947 589.877 219.747C605.814 215.705 619.092 205.161 633.469 197.538C653.905 186.674 671.543 172.128 686.74 155.021C700.897 140.115 710.236 121.308 709.856 100.119V99.4792C711.496 53.1809 646.167 35.7541 641.788 89.4552C644.767 132.632 624.191 173.628 593.336 202.86H593.356Z" fill="url(#paint0_linear_6485_701)"/>
</g>
<defs>
<linearGradient id="paint0_linear_6485_701" x1="0.84028" y1="1371" x2="1371.8" y2="0.820493" gradientUnits="userSpaceOnUse">
<stop stop-color="#98989A" stop-opacity="0.2"/>
<stop offset="0.02" stop-color="#98989A" stop-opacity="0.19"/>
<stop offset="0.42" stop-color="#98989A" stop-opacity="0.05"/>
<stop offset="0.67" stop-color="#98989A" stop-opacity="0"/>
</linearGradient>
<clipPath id="clip0_6485_701">
<rect width="1440" height="1300" fill="white"/>
</clipPath>
</defs>
</svg>
